<?xml version="1.0" encoding="utf-8"?>
<!-- Generator: Adobe Illustrator 16.0.0, SVG Export Plug-In . SVG Version: 6.00 Build 0)  -->
<!DOCTYPE svg PUBLIC "-//W3C//DTD SVG 1.1//EN" "http://www.w3.org/Graphics/SVG/1.1/DTD/svg11.dtd">
<svg version="1.1" id="Layer_1" xmlns="http://www.w3.org/2000/svg" xmlns:xlink="http://www.w3.org/1999/xlink" x="0px" y="0px"
	 width="141.5px" height="48px" viewBox="0 0 141.5 48" style="enable-background:new 0 0 141.5 48;" xml:space="preserve">
<style type="text/css">
<![CDATA[
	.st0{clip-path:url(#SVGID_2_);fill:#ED1C24;}
	.st1{clip-path:url(#SVGID_2_);fill:#21409A;}
	.st2{clip-path:url(#SVGID_2_);fill:#939598;}
	.st3{clip-path:url(#SVGID_2_);fill:#FFDE17;}
]]>
</style>
<g>
	<defs>
		<rect id="SVGID_1_" x="-251.3" y="-119.8" width="425.2" height="283.5"/>
	</defs>
	<clipPath id="SVGID_2_">
		<use xlink:href="#SVGID_1_"  style="overflow:visible;"/>
	</clipPath>
	<path class="st1" d="M-171,61.2v5.1c0,0.2,0,0.4,0.1,0.7h-3.9c0.1-0.2,0.1-0.5,0.1-0.7V53.2c0-0.3,0-0.5-0.1-0.7h5.6
		c1.3,0,2.4,0.3,3.2,0.8c1.2,0.7,1.7,1.9,1.7,3.5c0,1.7-0.7,2.9-2,3.7c-0.5,0.3-1,0.5-1.5,0.6c-0.5,0.1-1.2,0.2-2,0.2H-171z
		 M-171,59.6h0.9c0.6,0,1.1-0.1,1.4-0.4c0.6-0.5,0.8-1.3,0.8-2.4c0-0.9-0.2-1.5-0.5-2c-0.4-0.5-0.9-0.7-1.5-0.7h-1V59.6z"/>
	<path class="st1" d="M-162.9,55.3h3.4v1.2c0.3-1,1.3-1.5,2.8-1.5v2.5c-0.2,0-0.4,0-0.6,0c-1.5,0-2.2,0.8-2.2,2.3v6.6
		c0,0.3,0,0.5,0.1,0.7h-3.6c0.1-0.2,0.1-0.4,0.1-0.7V56C-162.7,55.7-162.8,55.5-162.9,55.3"/>
	<path class="st1" d="M-153.4,52.1c1.2,0,1.8,0.4,1.8,1.2c0,0.8-0.6,1.3-1.8,1.3c-1.2,0-1.9-0.4-1.9-1.2c0-0.4,0.2-0.7,0.5-0.9
		C-154.4,52.2-153.9,52.1-153.4,52.1 M-155.2,55.3h3.6c-0.1,0.2-0.1,0.4-0.1,0.7v10.3c0,0.3,0,0.5,0.1,0.7h-3.6
		c0.1-0.2,0.1-0.4,0.1-0.7V56C-155.1,55.7-155.1,55.4-155.2,55.3"/>
	<path class="st1" d="M-149,55.3h3.4v1.3c0.4-0.5,0.7-0.8,1.1-1c0.7-0.4,1.4-0.6,2.3-0.6c1.2,0,2.2,0.4,2.8,1.1
		c0.4,0.5,0.6,1.2,0.6,2.2v8.1c0,0.3,0,0.5,0.1,0.7h-3.6c0.1-0.2,0.1-0.4,0.1-0.7v-7.4c0-1.1-0.5-1.6-1.5-1.6c-0.6,0-1,0.2-1.4,0.5
		c-0.3,0.3-0.5,0.8-0.5,1.5v7c0,0.3,0,0.5,0.1,0.7h-3.6c0.1-0.2,0.1-0.4,0.1-0.7V56C-148.9,55.7-148.9,55.5-149,55.3"/>
	<path class="st1" d="M-127.6,66.6c-0.9,0.3-1.5,0.5-1.9,0.6c-0.4,0.1-0.9,0.1-1.4,0.1c-1.7,0-3.1-0.5-4.1-1.5
		c-1.1-1.1-1.7-2.6-1.7-4.5c0-2.1,0.6-3.7,1.9-4.8c1.1-1,2.5-1.4,4.2-1.4c0.9,0,1.9,0.2,3,0.5v2.2c-0.6-0.4-1-0.7-1.4-0.9
		c-0.3-0.1-0.7-0.2-1.2-0.2c-0.9,0-1.7,0.4-2.2,1.2c-0.5,0.8-0.8,1.9-0.8,3.3c0,1.3,0.2,2.4,0.7,3.2c0.5,0.9,1.2,1.3,2.2,1.3
		c0.4,0,0.9-0.1,1.3-0.2c0.4-0.2,0.8-0.4,1.4-0.8V66.6z"/>
	<path class="st1" d="M-115.8,66.2c-0.8,0.4-1.5,0.7-2.1,0.8c-0.6,0.1-1.3,0.2-2.1,0.2c-2.1,0-3.6-0.6-4.7-1.7c-1-1-1.5-2.5-1.5-4.3
		c0-2,0.5-3.6,1.6-4.8c1-1,2.4-1.6,4.1-1.6c2.3,0,3.8,0.9,4.7,2.7c0.4,0.9,0.6,2,0.6,3.4h-7.5c0,1.1,0.1,2,0.4,2.7
		c0.5,1.3,1.4,1.9,2.9,1.9c1.1,0,2.2-0.5,3.3-1.4L-115.8,66.2z M-122.7,59.6h3.8c0-0.7-0.1-1.2-0.2-1.6c-0.1-0.5-0.3-0.9-0.6-1.2
		c-0.3-0.3-0.6-0.4-1-0.4c-0.6,0-1,0.3-1.4,0.8C-122.4,57.8-122.6,58.6-122.7,59.6"/>
	<path class="st1" d="M-158.7,43.6v1.3c-0.4-0.3-0.7-0.5-1-0.6c-0.3-0.1-0.6-0.2-0.9-0.2c-0.7,0-1.2,0.3-1.6,0.8
		c-0.4,0.6-0.6,1.3-0.6,2.2c0,1,0.2,1.8,0.6,2.3c0.4,0.5,0.9,0.8,1.6,0.8c0.3,0,0.6-0.1,0.9-0.2c0.3-0.1,0.6-0.3,0.9-0.6v1.3
		c-0.4,0.2-0.8,0.3-1.1,0.3c-0.3,0.1-0.7,0.1-1.1,0.1c-1.3,0-2.2-0.3-2.9-1c-0.7-0.7-1-1.7-1-3c0-0.9,0.1-1.6,0.4-2.1
		c0.7-1.2,1.9-1.8,3.6-1.8C-160,43.2-159.3,43.3-158.7,43.6"/>
	<path class="st1" d="M-155.1,44.6c0.9,0,1.6,0.3,2.2,0.9c0.5,0.6,0.8,1.4,0.8,2.4c0,1.1-0.3,1.9-0.9,2.5c-0.5,0.5-1.2,0.7-2,0.7
		c-0.9,0-1.6-0.3-2.1-0.8c-0.6-0.6-0.9-1.5-0.9-2.5c0-1,0.3-1.8,0.8-2.3c0.3-0.3,0.6-0.5,0.9-0.6C-156,44.7-155.6,44.6-155.1,44.6
		 M-155.1,45.4c-0.2,0-0.3,0.1-0.5,0.2c-0.1,0.1-0.3,0.2-0.3,0.4c-0.2,0.5-0.3,1.1-0.3,1.9c0,0.8,0.1,1.5,0.3,1.9
		c0.1,0.2,0.2,0.3,0.3,0.4c0.1,0.1,0.3,0.2,0.5,0.2c0.2,0,0.3-0.1,0.5-0.2c0.1-0.1,0.3-0.2,0.3-0.4c0.2-0.5,0.3-1.1,0.3-1.9
		c0-0.8-0.1-1.5-0.3-1.9c-0.1-0.2-0.2-0.3-0.3-0.4C-154.8,45.5-155,45.4-155.1,45.4"/>
	<path class="st1" d="M-149.3,42.7c0,0.1-0.1,0.2-0.1,0.4v7.5c0,0.1,0,0.3,0.1,0.4h-1.9c0-0.1,0.1-0.2,0.1-0.4v-7.5
		c0-0.1,0-0.3-0.1-0.4H-149.3z"/>
	<path class="st1" d="M-142.8,50.6c-0.4,0.2-0.8,0.3-1.1,0.4c-0.3,0.1-0.7,0.1-1.1,0.1c-1.1,0-1.9-0.3-2.5-0.9
		c-0.5-0.5-0.8-1.3-0.8-2.3c0-1.1,0.3-1.9,0.9-2.5c0.5-0.6,1.2-0.8,2.2-0.8c1.2,0,2,0.5,2.5,1.4c0.2,0.5,0.3,1,0.3,1.8h-3.9
		c0,0.6,0.1,1.1,0.2,1.4c0.2,0.7,0.8,1,1.5,1c0.6,0,1.2-0.3,1.7-0.8L-142.8,50.6z M-146.4,47.1h2c0-0.4-0.1-0.6-0.1-0.8
		c-0.1-0.3-0.2-0.5-0.3-0.6c-0.2-0.1-0.3-0.2-0.5-0.2c-0.3,0-0.5,0.1-0.7,0.4C-146.2,46.1-146.3,46.5-146.4,47.1 M-146,44.1l0.8-1.9
		h1.3l-1.3,1.9H-146z"/>
	<path class="st1" d="M-141.3,51.7l-0.4-1.3l1.2-0.9c-0.4-0.3-0.7-0.6-0.9-0.9c-0.2-0.3-0.3-0.8-0.3-1.3c0-0.7,0.1-1.2,0.3-1.6
		c0.2-0.4,0.6-0.7,1-0.9c0.4-0.2,0.9-0.3,1.4-0.3c0.1,0,0.3,0,0.6,0c0.1-0.1,0.3-0.2,0.3-0.4c0.1-0.2,0.1-0.4,0.1-0.6h1.5
		c0,0.3-0.1,0.5-0.2,0.7c-0.1,0.2-0.3,0.4-0.6,0.7c0.4,0.2,0.6,0.4,0.8,0.7c0.3,0.5,0.5,1.1,0.5,1.8c0,0.7-0.2,1.3-0.6,1.8
		c-0.5,0.5-1.2,0.8-2.1,0.8c-0.2,0-0.3,0-0.4,0c-0.1,0-0.2,0.1-0.3,0.1l-1,0.6c0.7-0.2,1.2-0.3,1.5-0.3c0.3,0,0.6-0.1,0.9-0.1
		c0.6,0,1.2,0.1,1.6,0.3c0.2,0.1,0.4,0.2,0.5,0.4c0.1,0.2,0.2,0.3,0.2,0.5c0,0.2-0.1,0.4-0.2,0.6c-0.1,0.2-0.3,0.3-0.6,0.4
		c-0.5,0.2-1.1,0.3-1.9,0.3c-0.4,0-0.9,0-1.3-0.1c-0.4-0.1-1-0.2-1.7-0.4v-0.2c0.8,0.2,1.5,0.3,2.1,0.3c0.4,0,0.7,0,0.9-0.1
		c0.2-0.1,0.4-0.3,0.4-0.4c0-0.2-0.1-0.3-0.4-0.4c-0.3-0.1-0.6-0.2-1-0.2C-140,51.4-140.6,51.5-141.3,51.7 M-138.8,45.5
		c-0.7,0-1,0.6-1,1.8c0,1.2,0.3,1.9,1,1.9c0.4,0,0.6-0.2,0.8-0.6c0.1-0.4,0.2-0.8,0.2-1.3c0-0.6-0.1-1-0.3-1.3
		C-138.2,45.7-138.5,45.5-138.8,45.5"/>
	<path class="st1" d="M-134,43.1c0.6,0,0.9,0.2,0.9,0.6c0,0.4-0.3,0.7-0.9,0.7c-0.6,0-1-0.2-1-0.6c0-0.2,0.1-0.4,0.3-0.5
		C-134.5,43.2-134.3,43.1-134,43.1 M-134.9,44.8h1.9c0,0.1-0.1,0.2-0.1,0.4v5.4c0,0.1,0,0.3,0.1,0.4h-1.9c0-0.1,0.1-0.2,0.1-0.4
		v-5.4C-134.9,45-134.9,44.9-134.9,44.8"/>
	<path class="st1" d="M-129,44.6c0.9,0,1.6,0.3,2.2,0.9c0.5,0.6,0.8,1.4,0.8,2.4c0,1.1-0.3,1.9-0.9,2.5c-0.5,0.5-1.2,0.7-2,0.7
		c-0.9,0-1.6-0.3-2.1-0.8c-0.6-0.6-0.9-1.5-0.9-2.5c0-1,0.3-1.8,0.8-2.3c0.3-0.3,0.6-0.5,0.9-0.6C-129.9,44.7-129.5,44.6-129,44.6
		 M-129,45.4c-0.2,0-0.3,0.1-0.5,0.2c-0.1,0.1-0.3,0.2-0.3,0.4c-0.2,0.5-0.3,1.1-0.3,1.9c0,0.8,0.1,1.5,0.3,1.9
		c0.1,0.2,0.2,0.3,0.3,0.4c0.1,0.1,0.3,0.2,0.5,0.2c0.2,0,0.3-0.1,0.5-0.2c0.1-0.1,0.3-0.2,0.3-0.4c0.2-0.5,0.3-1.1,0.3-1.9
		c0-0.8-0.1-1.5-0.3-1.9c-0.1-0.2-0.2-0.3-0.3-0.4C-128.7,45.5-128.8,45.4-129,45.4"/>
	<path class="st3" d="M-157.6,4.5l-0.4,0.2h0.3C-157.6,4.6-157.6,4.5-157.6,4.5"/>
	<path class="st3" d="M-145.4-23.4c-16,0-29.1,13-29.1,29.1c0,11.5,6.7,21.5,16.5,26.2V4.6c0,0,0.5-5.2,3.1-8.4l0,0
		c3.3-5.4,9.3-9,16.1-9c10.4,0,18.8,8.4,18.8,18.8c0,10.4-8.4,18.8-18.8,18.8c-2.7,0-5.3-0.6-7.6-1.6v11.4c0.3,0,0.7,0,1,0
		c16,0,29.1-13,29.1-29.1C-116.3-10.4-129.3-23.4-145.4-23.4"/>
	<path class="st0" d="M-123.3,6.8c0,7-5.6,12.6-12.6,12.6s-12.6-5.6-12.6-12.6s5.6-12.6,12.6-12.6S-123.3-0.1-123.3,6.8"/>
	<rect x="-38.9" y="-39.8" class="st2" width="0.3" height="123.5"/>
	<path class="st1" d="M52.2,31.1v7.5c0,0.3,0.1,0.6,0.2,1.1h-5.8c0.1-0.3,0.2-0.7,0.2-1.1V19.3c0-0.4-0.1-0.8-0.2-1.1h8.2
		c1.9,0,3.5,0.4,4.7,1.1c1.7,1.1,2.5,2.8,2.5,5.2c0,2.5-1,4.3-2.9,5.4c-0.7,0.4-1.5,0.7-2.3,0.9s-1.8,0.3-2.9,0.3H52.2z M52.2,28.7
		h1.3c0.9,0,1.5-0.2,2-0.6c0.8-0.7,1.2-1.9,1.2-3.6c0-1.3-0.3-2.3-0.8-3c-0.5-0.7-1.3-1-2.3-1h-1.4V28.7z"/>
	<path class="st1" d="M64.3,22.3h5v1.8c0.5-1.5,1.9-2.2,4.2-2.3v3.7c-0.3,0-0.6-0.1-0.8-0.1c-2.1,0-3.2,1.1-3.2,3.4v9.7
		c0,0.4,0.1,0.8,0.2,1.1h-5.3c0.1-0.3,0.2-0.6,0.2-1.1V23.4C64.4,22.9,64.4,22.6,64.3,22.3"/>
	<path class="st1" d="M78.2,17.6c1.8,0,2.7,0.6,2.7,1.7c0,1.2-0.9,1.8-2.6,1.8c-1.8,0-2.7-0.6-2.7-1.8c0-0.6,0.2-1,0.7-1.3
		C76.7,17.8,77.4,17.6,78.2,17.6 M75.5,22.3h5.3c-0.1,0.3-0.2,0.6-0.2,1.1v15.2c0,0.4,0.1,0.7,0.2,1.1h-5.3c0.1-0.3,0.2-0.6,0.2-1.1
		V23.4C75.7,22.9,75.6,22.6,75.5,22.3"/>
	<path class="st1" d="M84.6,22.3h5v1.9c0.6-0.7,1.1-1.2,1.6-1.5c1-0.6,2.1-0.8,3.4-0.8c1.8,0,3.2,0.6,4.1,1.7
		c0.6,0.7,0.9,1.8,0.9,3.2v11.8c0,0.4,0.1,0.7,0.2,1.1h-5.3c0.1-0.3,0.2-0.6,0.2-1.1V27.7c0-1.6-0.7-2.4-2.2-2.4
		c-0.8,0-1.5,0.3-2,0.8c-0.5,0.5-0.7,1.2-0.7,2.1v10.4c0,0.4,0.1,0.8,0.2,1.1h-5.3c0.1-0.3,0.2-0.6,0.2-1.1V23.4
		C84.8,23,84.7,22.6,84.6,22.3"/>
	<path class="st1" d="M116.1,38.9c-1.3,0.4-2.3,0.7-2.8,0.8c-0.6,0.1-1.2,0.2-2.1,0.2c-2.6,0-4.6-0.7-6-2.2
		c-1.6-1.6-2.4-3.9-2.4-6.7c0-3,0.9-5.4,2.8-7.1c1.6-1.4,3.6-2.1,6.1-2.1c1.3,0,2.8,0.2,4.4,0.7v3.2c-0.8-0.7-1.5-1.1-2-1.3
		c-0.5-0.2-1.1-0.3-1.8-0.3c-1.4,0-2.4,0.6-3.2,1.7c-0.8,1.2-1.2,2.8-1.2,4.9c0,1.9,0.3,3.5,1,4.7c0.7,1.3,1.8,2,3.3,2
		c0.7,0,1.3-0.1,1.8-0.4c0.6-0.2,1.2-0.6,2-1.2V38.9z"/>
	<path class="st1" d="M133.4,38.5c-1.2,0.6-2.3,1-3.1,1.2s-1.9,0.3-3.1,0.3c-3,0-5.3-0.8-6.9-2.5c-1.5-1.5-2.2-3.6-2.2-6.3
		c0-3,0.8-5.3,2.4-7c1.5-1.5,3.5-2.3,6-2.3c3.4,0,5.6,1.3,6.9,4c0.6,1.3,0.9,2.9,0.9,5h-11c0,1.7,0.2,3,0.6,4
		c0.7,1.9,2.1,2.8,4.2,2.8c1.7,0,3.3-0.7,4.9-2.1L133.4,38.5z M123.3,28.7h5.6c-0.1-1-0.2-1.8-0.3-2.3c-0.2-0.7-0.5-1.3-0.9-1.7
		c-0.4-0.4-1-0.6-1.5-0.6c-0.8,0-1.5,0.4-2,1.2C123.7,26,123.4,27.2,123.3,28.7"/>
	<path class="st1" d="M70.4,5.1v2c-0.5-0.4-1-0.7-1.4-0.9c-0.4-0.2-0.8-0.3-1.3-0.3c-1,0-1.8,0.4-2.4,1.2c-0.6,0.8-0.9,1.9-0.9,3.3
		c0,1.5,0.3,2.6,1,3.4c0.6,0.8,1.4,1.1,2.3,1.1c0.5,0,0.9-0.1,1.3-0.3s0.9-0.5,1.4-0.9v1.9c-0.6,0.2-1.1,0.4-1.6,0.5
		c-0.5,0.1-1,0.1-1.6,0.1c-1.9,0-3.3-0.5-4.2-1.5c-1-1-1.5-2.5-1.5-4.4c0-1.3,0.2-2.3,0.6-3.1c1-1.8,2.8-2.7,5.3-2.7
		C68.5,4.6,69.5,4.7,70.4,5.1"/>
	<path class="st1" d="M75.6,6.7c1.4,0,2.4,0.4,3.2,1.3c0.8,0.9,1.2,2,1.2,3.5c0,1.6-0.4,2.8-1.3,3.6c-0.7,0.7-1.7,1.1-3,1.1
		c-1.3,0-2.3-0.4-3-1.1c-0.9-0.9-1.3-2.1-1.3-3.7c0-1.4,0.4-2.6,1.2-3.4c0.4-0.4,0.8-0.7,1.3-0.9C74.3,6.8,74.9,6.7,75.6,6.7
		 M75.6,7.8c-0.2,0-0.5,0.1-0.7,0.2c-0.2,0.2-0.4,0.4-0.5,0.6c-0.3,0.7-0.4,1.6-0.4,2.8c0,1.2,0.1,2.2,0.4,2.8
		c0.1,0.2,0.3,0.4,0.5,0.6c0.2,0.1,0.4,0.2,0.7,0.2c0.2,0,0.5-0.1,0.7-0.2c0.2-0.2,0.4-0.4,0.5-0.6c0.3-0.7,0.4-1.6,0.4-2.8
		c0-1.2-0.1-2.2-0.4-2.8c-0.1-0.2-0.3-0.4-0.5-0.6C76.1,7.9,75.9,7.8,75.6,7.8"/>
	<path class="st1" d="M84.2,3.9c-0.1,0.1-0.1,0.3-0.1,0.6v11.1c0,0.2,0,0.4,0.1,0.6h-2.8c0.1-0.1,0.1-0.3,0.1-0.6V4.4
		c0-0.2,0-0.4-0.1-0.6H84.2z"/>
	<path class="st1" d="M93.8,15.4c-0.6,0.3-1.2,0.5-1.7,0.6c-0.5,0.1-1,0.2-1.7,0.2c-1.6,0-2.8-0.4-3.6-1.3c-0.8-0.8-1.2-1.9-1.2-3.3
		c0-1.6,0.4-2.8,1.3-3.7c0.8-0.8,1.8-1.2,3.2-1.2c1.8,0,3,0.7,3.6,2.1c0.3,0.7,0.5,1.5,0.5,2.6h-5.8c0,0.9,0.1,1.6,0.3,2.1
		c0.4,1,1.1,1.5,2.2,1.5c0.9,0,1.7-0.4,2.6-1.1L93.8,15.4z M88.5,10.3h3c0-0.5-0.1-0.9-0.2-1.2c-0.1-0.4-0.3-0.7-0.5-0.9
		c-0.2-0.2-0.5-0.3-0.8-0.3c-0.4,0-0.8,0.2-1.1,0.6C88.7,8.9,88.5,9.5,88.5,10.3 M89.1,6l1.2-2.8h2L90.3,6H89.1z"/>
	<path class="st1" d="M95.9,17.1l-0.6-1.8L97,14c-0.6-0.4-1.1-0.8-1.3-1.3s-0.4-1.1-0.4-1.9c0-1,0.2-1.7,0.5-2.3
		c0.3-0.6,0.8-1,1.4-1.4c0.6-0.3,1.3-0.5,2.1-0.5c0.2,0,0.5,0,0.9,0c0.2-0.1,0.4-0.3,0.5-0.6c0.1-0.3,0.2-0.6,0.2-0.9h2.3
		c-0.1,0.4-0.2,0.7-0.3,1c-0.1,0.2-0.5,0.5-0.9,1c0.5,0.3,0.9,0.6,1.2,1.1c0.5,0.7,0.7,1.6,0.7,2.6c0,1.1-0.3,1.9-0.9,2.6
		c-0.7,0.8-1.7,1.2-3,1.2c-0.3,0-0.5,0-0.6,0.1c-0.1,0-0.3,0.1-0.4,0.2l-1.5,0.9c1.1-0.2,1.8-0.4,2.2-0.4c0.4-0.1,0.8-0.1,1.3-0.1
		c1,0,1.7,0.2,2.4,0.5c0.3,0.1,0.5,0.3,0.7,0.6c0.2,0.2,0.3,0.5,0.3,0.8c0,0.3-0.1,0.6-0.3,0.9c-0.2,0.3-0.5,0.5-0.9,0.6
		c-0.7,0.3-1.7,0.4-2.8,0.4c-0.7,0-1.3-0.1-1.9-0.2c-0.6-0.1-1.5-0.3-2.5-0.6V18c1.2,0.3,2.2,0.5,3.1,0.5c0.6,0,1-0.1,1.4-0.2
		c0.4-0.2,0.5-0.4,0.5-0.7c0-0.3-0.2-0.5-0.6-0.7c-0.4-0.2-0.9-0.2-1.5-0.2C97.9,16.6,96.9,16.8,95.9,17.1 M99.6,8
		c-1,0-1.5,0.9-1.5,2.6c0,1.8,0.5,2.7,1.5,2.7c0.6,0,0.9-0.3,1.2-0.8c0.2-0.5,0.3-1.2,0.3-2c0-0.8-0.1-1.5-0.4-1.9
		C100.5,8.2,100.1,8,99.6,8"/>
	<path class="st1" d="M106.7,4.4c0.9,0,1.4,0.3,1.4,0.9c0,0.6-0.5,1-1.4,1c-1,0-1.4-0.3-1.4-0.9c0-0.3,0.1-0.5,0.4-0.7
		C105.9,4.5,106.3,4.4,106.7,4.4 M105.3,6.9h2.8c-0.1,0.1-0.1,0.3-0.1,0.6v8c0,0.2,0,0.4,0.1,0.6h-2.8c0.1-0.1,0.1-0.3,0.1-0.6v-8
		C105.4,7.2,105.4,7.1,105.3,6.9"/>
	<path class="st1" d="M114.1,6.7c1.4,0,2.4,0.4,3.2,1.3c0.8,0.9,1.2,2,1.2,3.5c0,1.6-0.4,2.8-1.3,3.6c-0.7,0.7-1.7,1.1-3,1.1
		c-1.3,0-2.3-0.4-3-1.1c-0.9-0.9-1.3-2.1-1.3-3.7c0-1.4,0.4-2.6,1.2-3.4c0.4-0.4,0.8-0.7,1.3-0.9C112.8,6.8,113.4,6.7,114.1,6.7
		 M114.1,7.8c-0.2,0-0.5,0.1-0.7,0.2c-0.2,0.2-0.4,0.4-0.5,0.6c-0.3,0.7-0.4,1.6-0.4,2.8c0,1.2,0.1,2.2,0.4,2.8
		c0.1,0.2,0.3,0.4,0.5,0.6c0.2,0.1,0.4,0.2,0.7,0.2c0.2,0,0.5-0.1,0.7-0.2c0.2-0.2,0.4-0.4,0.5-0.6c0.3-0.7,0.4-1.6,0.4-2.8
		c0-1.2-0.1-2.2-0.4-2.8c-0.1-0.2-0.3-0.4-0.5-0.6C114.5,7.9,114.3,7.8,114.1,7.8"/>
	<path class="st3" d="M13,21.1l-0.3,0.1H13C13,21.1,13,21.1,13,21.1"/>
	<path class="st3" d="M21.8,1C10.2,1,0.9,10.4,0.9,21.9c0,8.3,4.8,15.5,11.9,18.8V21.2c0,0,0.4-3.7,2.2-6.1l0,0
		c2.4-3.9,6.7-6.5,11.6-6.5c7.5,0,13.6,6.1,13.6,13.6c0,7.5-6.1,13.6-13.6,13.6c-2,0-3.8-0.4-5.5-1.2v8.2c0.2,0,0.5,0,0.7,0
		c11.5,0,20.9-9.4,20.9-20.9C42.7,10.4,33.3,1,21.8,1"/>
	<path class="st0" d="M37.7,22.8c0,5-4.1,9.1-9.1,9.1s-9.1-4.1-9.1-9.1c0-5,4.1-9.1,9.1-9.1S37.7,17.8,37.7,22.8"/>
	<path class="st1" d="M46.2,47.6c0-0.1,0-0.1,0-0.2v-4.8c0-0.1,0-0.2,0-0.2l3,0v0.5c-0.1,0-0.2,0-0.3,0h-1.4v1.8h1.4
		c0.1,0,0.2,0,0.3,0v0.5c0,0-0.1,0-0.1,0c-0.1,0-0.1,0-0.1,0h-1.4v1.9h1.4h0.2c0,0,0.1,0,0.1,0v0.6H46.2z"/>
	<path class="st1" d="M52.2,43.8v-1.5c0-0.1,0-0.2,0-0.2h1.2c0,0,0,0.1,0,0.1s0,0.1,0,0.1v5.1c0,0.1,0,0.2,0,0.2h-1.1v-0.5l-0.2,0.2
		c-0.1,0.1-0.2,0.2-0.4,0.3c-0.2,0.1-0.4,0.1-0.5,0.1c-0.5,0-0.9-0.2-1.1-0.6c-0.3-0.4-0.4-0.9-0.4-1.7c0-0.7,0.1-1.2,0.4-1.6
		c0.3-0.4,0.7-0.6,1.2-0.6c0.2,0,0.4,0,0.5,0.1C51.9,43.5,52.1,43.6,52.2,43.8 M51.5,43.9c-0.3,0-0.4,0.1-0.6,0.4
		c-0.1,0.3-0.2,0.7-0.2,1.2v0.1c0,1,0.2,1.4,0.7,1.4c0.2,0,0.3-0.1,0.5-0.2c0.1-0.1,0.2-0.3,0.2-0.6c0-0.1,0-0.2,0-0.3
		c0-0.2,0-0.2,0-0.3v-0.2l0-0.8c0-0.2-0.1-0.4-0.2-0.6C51.9,44,51.7,43.9,51.5,43.9"/>
	<path class="st1" d="M54.1,43.4h1.2c0,0.1,0,0.1,0,0.2v2.5c0,0.1,0,0.1,0,0.2c0,0.1,0,0.1,0,0.2c0,0.1,0.1,0.2,0.2,0.3
		c0.1,0.1,0.2,0.1,0.4,0.1c0.2,0,0.4-0.1,0.5-0.2c0.1-0.1,0.2-0.3,0.2-0.6v-2.5c0-0.1,0-0.2,0-0.2h1.2c0,0,0,0.1,0,0.2v3.7
		c0,0.1,0,0.2,0,0.2h-1.1v-0.5c-0.3,0.4-0.7,0.6-1.2,0.6c-0.4,0-0.7-0.1-0.9-0.3c-0.2-0.2-0.3-0.5-0.3-0.9v-2.8
		C54.1,43.6,54.1,43.5,54.1,43.4"/>
	<path class="st1" d="M61.5,43.5v0.7l-0.2-0.2c-0.2-0.2-0.5-0.2-0.7-0.2c-0.3,0-0.6,0.1-0.8,0.4c-0.2,0.3-0.3,0.7-0.3,1.3
		c0,0.5,0.1,0.9,0.3,1.2c0.2,0.3,0.4,0.4,0.8,0.4c0.2,0,0.4,0,0.6-0.1c0.1,0,0.1-0.1,0.2-0.1c0.1,0,0.1-0.1,0.2-0.2v0.7
		c-0.2,0.1-0.4,0.2-0.6,0.2c-0.2,0-0.4,0.1-0.6,0.1c-0.6,0-1.1-0.2-1.5-0.6c-0.4-0.4-0.5-0.9-0.5-1.6c0-0.7,0.2-1.2,0.6-1.6
		s0.9-0.6,1.5-0.6c0.2,0,0.4,0,0.5,0C61.1,43.4,61.3,43.4,61.5,43.5"/>
	<path class="st1" d="M62.3,44.3l-0.2-0.6l0.3-0.1c0.2-0.1,0.4-0.1,0.6-0.1c0.2,0,0.4-0.1,0.6-0.1c0.7,0,1.1,0.2,1.3,0.5
		c0.1,0.1,0.1,0.4,0.1,0.6v2.1c0,0.2,0,0.3,0,0.3c0,0.1,0.1,0.1,0.2,0.1c0.1,0,0.2,0,0.3-0.1v0.6c-0.3,0.2-0.5,0.3-0.8,0.3
		c-0.1,0-0.3,0-0.4-0.1c-0.1-0.1-0.2-0.1-0.3-0.2c0-0.1,0-0.1,0-0.2c-0.1,0.1-0.1,0.1-0.2,0.2c-0.3,0.2-0.6,0.3-0.9,0.3
		c-0.3,0-0.6-0.1-0.8-0.3c-0.2-0.2-0.3-0.5-0.3-0.9c0-0.4,0.1-0.7,0.4-1c0.1-0.1,0.3-0.2,0.5-0.3c0.2-0.1,0.5-0.2,0.8-0.3
		c0.2-0.1,0.4-0.1,0.4-0.2c0.1-0.1,0.1-0.2,0.1-0.4c0-0.2-0.1-0.3-0.2-0.4c-0.1-0.1-0.3-0.2-0.5-0.2c-0.1,0-0.2,0-0.3,0
		c-0.1,0-0.2,0.1-0.3,0.1C62.6,44.1,62.5,44.2,62.3,44.3 M64,46.3v-1l-0.2,0.1l-0.5,0.2c-0.2,0.1-0.3,0.2-0.4,0.3
		c-0.1,0.1-0.1,0.3-0.1,0.5c0,0.2,0.1,0.3,0.2,0.5c0.1,0.1,0.2,0.2,0.4,0.2c0.2,0,0.4-0.1,0.5-0.2C64,46.7,64,46.5,64,46.3"/>
	<path class="st1" d="M65.9,43.4h1.1v0.5c0.1-0.2,0.2-0.4,0.4-0.5c0.2-0.1,0.4-0.1,0.7-0.1v0.8l-0.2,0c-0.5,0-0.8,0.3-0.8,0.8v2.4
		c0,0.1,0,0.2,0,0.2h-1.2c0-0.1,0-0.1,0-0.2v-3.7C66,43.6,66,43.5,65.9,43.4"/>
	<path class="st1" d="M74.2,45.5h-2.7v0.1c0,0.5,0.1,0.9,0.3,1.2c0.2,0.3,0.5,0.4,0.9,0.4c0.3,0,0.5-0.1,0.8-0.2
		c0.1-0.1,0.3-0.2,0.4-0.3l0.1,0.6l-0.2,0.1c-0.4,0.2-0.8,0.2-1.3,0.2c-0.7,0-1.2-0.2-1.6-0.6c-0.4-0.4-0.6-0.9-0.6-1.6
		c0-0.7,0.2-1.2,0.5-1.6c0.4-0.4,0.9-0.6,1.5-0.6c0.9,0,1.4,0.4,1.7,1.1c0,0.1,0.1,0.3,0.1,0.4c0,0.2,0,0.3,0,0.5V45.5z M72.3,43.8
		c-0.2,0-0.4,0.1-0.6,0.3c-0.2,0.2-0.2,0.5-0.2,0.9H73c0-0.4-0.1-0.7-0.2-0.9C72.7,43.9,72.5,43.8,72.3,43.8 M71.8,43.1l0.5-1.1h0.8
		l-0.9,1.1H71.8z"/>
	<path class="st1" d="M77.2,44.3L77,43.7l0.3-0.1c0.2-0.1,0.4-0.1,0.6-0.1c0.2,0,0.4-0.1,0.6-0.1c0.7,0,1.1,0.2,1.3,0.5
		C80,44,80,44.2,80,44.5v2.1c0,0.2,0,0.3,0,0.3c0,0.1,0.1,0.1,0.2,0.1c0.1,0,0.2,0,0.3-0.1v0.6c-0.3,0.2-0.5,0.3-0.8,0.3
		c-0.1,0-0.3,0-0.4-0.1c-0.1-0.1-0.2-0.1-0.3-0.2c0-0.1,0-0.1,0-0.2c-0.1,0.1-0.1,0.1-0.2,0.2c-0.3,0.2-0.6,0.3-0.9,0.3
		c-0.3,0-0.6-0.1-0.8-0.3c-0.2-0.2-0.3-0.5-0.3-0.9c0-0.4,0.1-0.7,0.4-1c0.1-0.1,0.3-0.2,0.5-0.3c0.2-0.1,0.5-0.2,0.8-0.3
		c0.2-0.1,0.4-0.1,0.4-0.2c0.1-0.1,0.1-0.2,0.1-0.4c0-0.2-0.1-0.3-0.2-0.4c-0.1-0.1-0.3-0.2-0.5-0.2c-0.1,0-0.2,0-0.3,0
		c-0.1,0-0.2,0.1-0.3,0.1C77.5,44.1,77.3,44.2,77.2,44.3 M78.9,46.3v-1l-0.2,0.1l-0.5,0.2c-0.2,0.1-0.3,0.2-0.4,0.3
		s-0.1,0.3-0.1,0.5c0,0.2,0.1,0.3,0.2,0.5c0.1,0.1,0.2,0.2,0.4,0.2c0.2,0,0.4-0.1,0.5-0.2C78.8,46.7,78.9,46.5,78.9,46.3"/>
	<path class="st1" d="M82.9,47.6c0-0.1,0-0.1,0-0.2v-3.7c0-0.1,0-0.2,0-0.2h1.1V44c0.1-0.1,0.1-0.2,0.2-0.2c0.3-0.3,0.6-0.4,1.1-0.4
		c0.4,0,0.7,0.1,0.9,0.3c0.2,0.2,0.3,0.5,0.3,0.9v2.9c0,0.1,0,0.2,0,0.2h-1.2c0-0.1,0-0.1,0-0.2v-2.7c0-0.4-0.2-0.6-0.6-0.6
		c-0.2,0-0.4,0.1-0.5,0.2c-0.1,0.1-0.2,0.3-0.2,0.5v2.6c0,0.1,0,0.2,0,0.2H82.9z"/>
	<path class="st1" d="M87.2,45.5c0-0.7,0.2-1.2,0.5-1.6c0.4-0.4,0.8-0.6,1.5-0.6c0.6,0,1.1,0.2,1.5,0.6c0.3,0.4,0.5,0.9,0.5,1.7
		c0,0.7-0.2,1.2-0.5,1.6c-0.4,0.4-0.8,0.6-1.4,0.6c-0.6,0-1.1-0.2-1.5-0.6C87.3,46.7,87.2,46.2,87.2,45.5 M88.4,44.7
		c0,0.1,0,0.2,0,0.4c0,0.2,0,0.3,0,0.5c0,0.3,0,0.7,0.1,0.9c0.1,0.3,0.2,0.5,0.3,0.6c0.1,0.1,0.2,0.2,0.4,0.2c0.2,0,0.3-0.1,0.5-0.2
		c0.1-0.1,0.2-0.4,0.3-0.6s0.1-0.6,0.1-0.9c0-0.4,0-0.7-0.1-0.9c-0.1-0.3-0.2-0.5-0.3-0.6c-0.1-0.1-0.2-0.2-0.4-0.2
		C88.8,43.8,88.5,44.1,88.4,44.7"/>
	<path class="st1" d="M91.5,47.4l0.2-0.7c0.2,0.2,0.4,0.3,0.5,0.3c0.2,0.1,0.5,0.2,0.7,0.2c0.2,0,0.4-0.1,0.5-0.2
		c0.1-0.1,0.2-0.2,0.2-0.4c0-0.1,0-0.1,0-0.2c0-0.1,0-0.1-0.1-0.1c-0.1-0.1-0.1-0.1-0.2-0.2c-0.1,0-0.3-0.1-0.7-0.3
		c-0.2-0.1-0.4-0.2-0.6-0.3c-0.3-0.2-0.4-0.5-0.4-0.9c0-0.4,0.1-0.7,0.4-1s0.7-0.4,1.2-0.4c0.2,0,0.4,0,0.6,0.1
		c0.2,0,0.4,0.1,0.7,0.2l-0.2,0.7C94.2,44.1,94,44,93.9,44c-0.2-0.1-0.4-0.1-0.6-0.1c-0.2,0-0.4,0-0.5,0.1c-0.1,0.1-0.2,0.2-0.2,0.4
		c0,0.1,0,0.2,0.1,0.3s0.1,0.1,0.3,0.2l0.6,0.2c0.4,0.1,0.7,0.3,0.8,0.5c0.2,0.2,0.2,0.5,0.2,0.8c0,0.4-0.2,0.8-0.5,1
		c-0.3,0.3-0.7,0.4-1.3,0.4c-0.1,0-0.3,0-0.4,0c-0.1,0-0.3,0-0.4-0.1c-0.1,0-0.2-0.1-0.3-0.1C91.7,47.5,91.6,47.4,91.5,47.4"/>
	<path class="st1" d="M94.9,47.4l0.2-0.7c0.2,0.2,0.4,0.3,0.5,0.3c0.2,0.1,0.5,0.2,0.7,0.2c0.2,0,0.4-0.1,0.5-0.2
		c0.1-0.1,0.2-0.2,0.2-0.4c0-0.1,0-0.1,0-0.2c0-0.1,0-0.1-0.1-0.1c-0.1-0.1-0.1-0.1-0.2-0.2c-0.1,0-0.3-0.1-0.7-0.3
		c-0.2-0.1-0.4-0.2-0.6-0.3c-0.3-0.2-0.4-0.5-0.4-0.9c0-0.4,0.1-0.7,0.4-1c0.3-0.2,0.7-0.4,1.2-0.4c0.2,0,0.4,0,0.6,0.1
		c0.2,0,0.4,0.1,0.7,0.2l-0.2,0.7c-0.2-0.1-0.3-0.2-0.4-0.3c-0.2-0.1-0.4-0.1-0.6-0.1c-0.2,0-0.4,0-0.5,0.1
		c-0.1,0.1-0.2,0.2-0.2,0.4c0,0.1,0,0.2,0.1,0.3s0.1,0.1,0.3,0.2L97,45c0.4,0.1,0.7,0.3,0.8,0.5c0.2,0.2,0.2,0.5,0.2,0.8
		c0,0.4-0.2,0.8-0.5,1c-0.3,0.3-0.7,0.4-1.2,0.4c-0.1,0-0.3,0-0.4,0c-0.1,0-0.3,0-0.4-0.1c-0.1,0-0.2-0.1-0.3-0.1
		C95.2,47.5,95.1,47.4,94.9,47.4"/>
	<path class="st1" d="M99,44.3l-0.2-0.6l0.3-0.1c0.2-0.1,0.4-0.1,0.6-0.1c0.2,0,0.4-0.1,0.6-0.1c0.7,0,1.1,0.2,1.3,0.5
		c0.1,0.1,0.1,0.4,0.1,0.6v2.1c0,0.2,0,0.3,0,0.3c0,0.1,0.1,0.1,0.2,0.1c0.1,0,0.2,0,0.3-0.1v0.6c-0.3,0.2-0.5,0.3-0.8,0.3
		c-0.1,0-0.3,0-0.4-0.1c-0.1-0.1-0.2-0.1-0.3-0.2c0-0.1,0-0.1,0-0.2c-0.1,0.1-0.1,0.1-0.2,0.2c-0.3,0.2-0.6,0.3-0.9,0.3
		c-0.3,0-0.6-0.1-0.8-0.3c-0.2-0.2-0.3-0.5-0.3-0.9c0-0.4,0.1-0.7,0.4-1c0.1-0.1,0.3-0.2,0.5-0.3c0.2-0.1,0.5-0.2,0.8-0.3
		c0.2-0.1,0.4-0.1,0.4-0.2c0.1-0.1,0.1-0.2,0.1-0.4c0-0.2-0.1-0.3-0.2-0.4c-0.1-0.1-0.3-0.2-0.5-0.2c-0.1,0-0.2,0-0.3,0
		c-0.1,0-0.2,0.1-0.3,0.1C99.3,44.1,99.2,44.2,99,44.3 M100.7,46.3v-1l-0.2,0.1l-0.5,0.2c-0.2,0.1-0.3,0.2-0.4,0.3s-0.1,0.3-0.1,0.5
		c0,0.2,0,0.3,0.2,0.5c0.1,0.1,0.2,0.2,0.4,0.2c0.2,0,0.4-0.1,0.5-0.2C100.7,46.7,100.7,46.5,100.7,46.3"/>
	<path class="st1" d="M107.2,43.8v-1.5c0-0.1,0-0.2,0-0.2h1.2c0,0,0,0.1,0,0.1s0,0.1,0,0.1v5.1c0,0.1,0,0.2,0,0.2h-1.1v-0.5
		l-0.2,0.2c-0.1,0.1-0.2,0.2-0.4,0.3c-0.2,0.1-0.4,0.1-0.5,0.1c-0.5,0-0.9-0.2-1.1-0.6c-0.3-0.4-0.4-0.9-0.4-1.7
		c0-0.7,0.1-1.2,0.4-1.6c0.3-0.4,0.7-0.6,1.2-0.6c0.2,0,0.4,0,0.5,0.1C106.9,43.5,107.1,43.6,107.2,43.8 M106.5,43.9
		c-0.3,0-0.4,0.1-0.6,0.4c-0.1,0.3-0.2,0.7-0.2,1.2v0.1c0,1,0.2,1.4,0.7,1.4c0.2,0,0.3-0.1,0.5-0.2c0.1-0.1,0.2-0.3,0.2-0.6
		c0-0.1,0-0.2,0-0.3c0-0.2,0-0.2,0-0.3v-0.2l0-0.8c0-0.2-0.1-0.4-0.2-0.6S106.7,43.9,106.5,43.9"/>
	<path class="st1" d="M109,42.7c0-0.3,0.2-0.4,0.7-0.4c0.4,0,0.6,0.1,0.6,0.4c0,0.3-0.2,0.4-0.7,0.4C109.2,43.1,109,43,109,42.7
		 M109.1,47.6c0-0.1,0-0.1,0-0.2v-3.7c0-0.1,0-0.2,0-0.2h1.2c0,0.1,0,0.1,0,0.2v3.7c0,0.1,0,0.2,0,0.2H109.1z"/>
	<path class="st1" d="M110.4,43.4h1.3v0.1c0,0.1,0,0.1,0,0.2l0.9,2.7l1-2.7c0-0.1,0-0.1,0-0.2v0h0.6c0,0-0.1,0.1-0.1,0.2l-1.3,3.7
		c0,0.1-0.1,0.2-0.1,0.2v0h-0.9v0c0,0,0-0.1,0-0.2l-1.3-3.7c0-0.1,0-0.1-0.1-0.1C110.4,43.5,110.4,43.5,110.4,43.4"/>
	<path class="st1" d="M118.2,45.5h-2.7v0.1c0,0.5,0.1,0.9,0.3,1.2c0.2,0.3,0.5,0.4,0.9,0.4c0.3,0,0.5-0.1,0.8-0.2
		c0.1-0.1,0.3-0.2,0.4-0.3l0.1,0.6l-0.2,0.1c-0.4,0.2-0.8,0.2-1.3,0.2c-0.7,0-1.2-0.2-1.6-0.6c-0.4-0.4-0.6-0.9-0.6-1.6
		c0-0.7,0.2-1.2,0.5-1.6c0.4-0.4,0.9-0.6,1.5-0.6c0.9,0,1.4,0.4,1.7,1.1c0,0.1,0.1,0.3,0.1,0.4c0,0.2,0,0.3,0,0.5V45.5z M116.3,43.8
		c-0.2,0-0.4,0.1-0.6,0.3c-0.2,0.2-0.2,0.5-0.2,0.9h1.6c0-0.4-0.1-0.7-0.2-0.9C116.7,43.9,116.5,43.8,116.3,43.8"/>
	<path class="st1" d="M118.7,43.4h1.1v0.5c0.1-0.2,0.2-0.4,0.4-0.5s0.4-0.1,0.7-0.1v0.8l-0.2,0c-0.5,0-0.8,0.3-0.8,0.8v2.4
		c0,0.1,0,0.2,0,0.2h-1.2c0-0.1,0-0.1,0-0.2v-3.7C118.8,43.6,118.8,43.5,118.7,43.4"/>
	<path class="st1" d="M120.9,47.4l0.2-0.7c0.2,0.2,0.4,0.3,0.5,0.3c0.2,0.1,0.5,0.2,0.7,0.2c0.2,0,0.4-0.1,0.5-0.2
		c0.1-0.1,0.2-0.2,0.2-0.4c0-0.1,0-0.1,0-0.2c0-0.1,0-0.1-0.1-0.1c-0.1-0.1-0.1-0.1-0.2-0.2c-0.1,0-0.3-0.1-0.7-0.3
		c-0.2-0.1-0.4-0.2-0.6-0.3c-0.3-0.2-0.4-0.5-0.4-0.9c0-0.4,0.1-0.7,0.4-1c0.3-0.2,0.7-0.4,1.2-0.4c0.2,0,0.4,0,0.6,0.1
		c0.2,0,0.4,0.1,0.7,0.2l-0.2,0.7c-0.2-0.1-0.3-0.2-0.4-0.3c-0.2-0.1-0.4-0.1-0.6-0.1c-0.2,0-0.4,0-0.5,0.1
		c-0.1,0.1-0.2,0.2-0.2,0.4c0,0.1,0,0.2,0.1,0.3c0,0.1,0.1,0.1,0.3,0.2l0.6,0.2c0.4,0.1,0.7,0.3,0.8,0.5c0.2,0.2,0.2,0.5,0.2,0.8
		c0,0.4-0.2,0.8-0.5,1c-0.3,0.3-0.7,0.4-1.3,0.4c-0.1,0-0.3,0-0.4,0c-0.1,0-0.3,0-0.4-0.1c-0.1,0-0.2-0.1-0.3-0.1
		C121.1,47.5,121,47.4,120.9,47.4"/>
	<path class="st1" d="M125,44.3l-0.2-0.6l0.3-0.1c0.2-0.1,0.4-0.1,0.6-0.1c0.2,0,0.4-0.1,0.6-0.1c0.7,0,1.1,0.2,1.3,0.5
		c0.1,0.1,0.1,0.4,0.1,0.6v2.1c0,0.2,0,0.3,0,0.3c0,0.1,0.1,0.1,0.2,0.1c0.1,0,0.2,0,0.3-0.1v0.6c-0.3,0.2-0.5,0.3-0.8,0.3
		c-0.1,0-0.3,0-0.4-0.1c-0.1-0.1-0.2-0.1-0.3-0.2c0-0.1,0-0.1,0-0.2c-0.1,0.1-0.1,0.1-0.2,0.2c-0.3,0.2-0.6,0.3-0.9,0.3
		c-0.3,0-0.6-0.1-0.8-0.3c-0.2-0.2-0.3-0.5-0.3-0.9c0-0.4,0.1-0.7,0.4-1c0.1-0.1,0.3-0.2,0.5-0.3c0.2-0.1,0.5-0.2,0.8-0.3
		c0.2-0.1,0.4-0.1,0.4-0.2c0.1-0.1,0.1-0.2,0.1-0.4c0-0.2-0.1-0.3-0.2-0.4c-0.1-0.1-0.3-0.2-0.5-0.2c-0.1,0-0.2,0-0.3,0
		c-0.1,0-0.2,0.1-0.3,0.1C125.2,44.1,125.1,44.2,125,44.3 M125.1,42.6c0.2-0.1,0.5-0.1,0.7-0.1c0.2,0,0.4,0,0.6,0.1l0.4,0.1h0.2
		c0.2,0,0.3,0,0.4-0.1l0,0.5c-0.2,0.1-0.3,0.1-0.5,0.1h-0.3l-0.4-0.1c-0.2,0-0.4,0-0.5,0c-0.1,0-0.2,0-0.3,0c-0.1,0-0.2,0.1-0.3,0.1
		L125.1,42.6z M126.7,46.3v-1l-0.2,0.1l-0.5,0.2c-0.2,0.1-0.3,0.2-0.4,0.3s-0.1,0.3-0.1,0.5c0,0.2,0.1,0.3,0.2,0.5
		c0.1,0.1,0.2,0.2,0.4,0.2c0.2,0,0.4-0.1,0.5-0.2C126.6,46.7,126.7,46.5,126.7,46.3"/>
	<path class="st1" d="M128.4,45.5c0-0.7,0.2-1.2,0.5-1.6c0.4-0.4,0.8-0.6,1.5-0.6c0.6,0,1.1,0.2,1.5,0.6c0.3,0.4,0.5,0.9,0.5,1.7
		c0,0.7-0.2,1.2-0.5,1.6c-0.4,0.4-0.8,0.6-1.4,0.6c-0.6,0-1.1-0.2-1.5-0.6C128.6,46.7,128.4,46.2,128.4,45.5 M129.7,44.7
		c0,0.1,0,0.2,0,0.4c0,0.2,0,0.3,0,0.5c0,0.3,0,0.7,0.1,0.9c0.1,0.3,0.2,0.5,0.3,0.6c0.1,0.1,0.2,0.2,0.4,0.2c0.2,0,0.3-0.1,0.5-0.2
		c0.1-0.1,0.2-0.4,0.3-0.6c0.1-0.3,0.1-0.6,0.1-0.9c0-0.4,0-0.7-0.1-0.9c-0.1-0.3-0.2-0.5-0.3-0.6c-0.1-0.1-0.2-0.2-0.4-0.2
		C130.1,43.8,129.8,44.1,129.7,44.7"/>
	<path class="st1" d="M132.9,42.4h1.3c0,0.1-0.1,0.2-0.1,0.2l-0.2,3.5h-0.9l-0.2-3.5C133,42.5,133,42.5,132.9,42.4 M133,47.1
		c0-0.2,0.1-0.3,0.2-0.4c0.1-0.1,0.3-0.2,0.5-0.2c0.2,0,0.3,0.1,0.4,0.2c0.1,0.1,0.2,0.3,0.2,0.4c0,0.2-0.1,0.3-0.2,0.4
		c-0.1,0.1-0.3,0.2-0.5,0.2s-0.3-0.1-0.5-0.2C133,47.4,133,47.3,133,47.1"/>
	<path class="st1" d="M134.3,20.9c0-0.5,0.1-0.9,0.3-1.3c0.2-0.4,0.4-0.8,0.8-1.1c0.3-0.3,0.7-0.6,1.1-0.8c0.4-0.2,0.9-0.3,1.3-0.3
		c0.5,0,0.9,0.1,1.3,0.3c0.4,0.2,0.8,0.4,1.2,0.8c0.7,0.7,1,1.5,1,2.5c0,1-0.3,1.8-1,2.5c-0.7,0.7-1.5,1-2.5,1c-1,0-1.8-0.3-2.5-1
		C134.6,22.7,134.3,21.9,134.3,20.9 M134.8,20.9c0,0.4,0.1,0.8,0.2,1.2c0.2,0.4,0.4,0.7,0.6,1s0.6,0.5,1,0.6
		c0.4,0.1,0.7,0.2,1.1,0.2c0.4,0,0.8-0.1,1.1-0.2c0.4-0.1,0.7-0.4,1-0.7c0.3-0.3,0.5-0.6,0.6-1c0.1-0.4,0.2-0.7,0.2-1.1
		c0-0.4-0.1-0.8-0.2-1.1c-0.1-0.4-0.4-0.7-0.6-1c-0.3-0.3-0.6-0.5-1-0.7s-0.7-0.2-1.1-0.2c-0.4,0-0.8,0.1-1.1,0.2
		c-0.4,0.1-0.7,0.4-1,0.7c-0.3,0.3-0.5,0.6-0.7,1C134.9,20.1,134.8,20.5,134.8,20.9 M136.6,23v-4.2h1.1c0.4,0,0.8,0.1,1,0.2
		c0.2,0.2,0.3,0.4,0.4,0.7c0,0.1,0,0.2,0,0.3c0,0.3-0.1,0.5-0.2,0.7c-0.2,0.2-0.4,0.3-0.7,0.4l-0.1,0l1.3,1.9l-0.8,0l-1.3-2v2H136.6
		z M137.3,20.7h0.3c0.5,0,0.8-0.2,0.8-0.7c0-0.5-0.3-0.7-0.8-0.7h-0.4V20.7z"/>
	<path class="st1" d="M-115.3,54.1c0-0.3,0.1-0.6,0.2-0.8c0.1-0.3,0.3-0.5,0.5-0.7c0.2-0.2,0.5-0.4,0.7-0.5c0.3-0.1,0.6-0.2,0.8-0.2
		c0.3,0,0.6,0.1,0.8,0.2c0.3,0.1,0.5,0.3,0.7,0.5c0.4,0.4,0.6,1,0.6,1.6c0,0.6-0.2,1.1-0.6,1.6c-0.4,0.4-1,0.6-1.6,0.6
		c-0.6,0-1.1-0.2-1.6-0.6C-115,55.2-115.3,54.7-115.3,54.1 M-114.9,54.1c0,0.3,0,0.5,0.1,0.7c0.1,0.2,0.2,0.4,0.4,0.6
		c0.2,0.2,0.4,0.3,0.6,0.4c0.2,0.1,0.5,0.1,0.7,0.1c0.3,0,0.5,0,0.7-0.1c0.2-0.1,0.4-0.2,0.6-0.4c0.2-0.2,0.3-0.4,0.4-0.6
		c0.1-0.2,0.1-0.5,0.1-0.7c0-0.3,0-0.5-0.1-0.7c-0.1-0.2-0.2-0.4-0.4-0.6c-0.2-0.2-0.4-0.3-0.6-0.4c-0.2-0.1-0.5-0.1-0.7-0.1
		c-0.2,0-0.5,0-0.7,0.1c-0.2,0.1-0.4,0.2-0.6,0.4s-0.3,0.4-0.4,0.6C-114.9,53.6-114.9,53.8-114.9,54.1 M-113.8,55.4v-2.7h0.7
		c0.3,0,0.5,0.1,0.6,0.2c0.1,0.1,0.2,0.2,0.3,0.4c0,0.1,0,0.1,0,0.2c0,0.2-0.1,0.3-0.2,0.5s-0.2,0.2-0.4,0.2l-0.1,0l0.8,1.2l-0.5,0
		l-0.8-1.3v1.3H-113.8z M-113.4,54h0.2c0.3,0,0.5-0.1,0.5-0.4c0-0.3-0.2-0.5-0.5-0.5h-0.2V54z"/>
	<path class="st1" d="M-174.9,73.5c0,0,0-0.1,0-0.2v-3.2c0-0.1,0-0.1,0-0.2l2,0v0.4c-0.1,0-0.1,0-0.2,0h-1v1.2h1c0.1,0,0.1,0,0.2,0
		v0.4c0,0-0.1,0-0.1,0c0,0-0.1,0-0.1,0h-1v1.2h0.9h0.1c0,0,0,0,0.1,0v0.4H-174.9z"/>
	<path class="st1" d="M-170.9,70.9v-1c0-0.1,0-0.1,0-0.2h0.8c0,0,0,0,0,0.1c0,0,0,0.1,0,0.1v3.4c0,0,0,0.1,0,0.2h-0.8v-0.3l-0.1,0.1
		c-0.1,0.1-0.2,0.1-0.3,0.2c-0.1,0-0.2,0.1-0.4,0.1c-0.3,0-0.6-0.1-0.7-0.4c-0.2-0.3-0.3-0.6-0.3-1.1c0-0.5,0.1-0.8,0.3-1.1
		c0.2-0.2,0.5-0.4,0.8-0.4c0.1,0,0.3,0,0.4,0.1C-171.1,70.7-171,70.8-170.9,70.9 M-171.4,71c-0.2,0-0.3,0.1-0.4,0.3
		c-0.1,0.2-0.1,0.4-0.1,0.8v0.1c0,0.6,0.2,1,0.5,1c0.1,0,0.2,0,0.3-0.1c0.1-0.1,0.1-0.2,0.2-0.4c0,0,0-0.1,0-0.2c0-0.1,0-0.2,0-0.2
		v-0.1l0-0.6c0-0.2,0-0.3-0.1-0.4C-171.1,71.1-171.2,71-171.4,71"/>
	<path class="st1" d="M-169.7,70.7h0.8c0,0,0,0.1,0,0.2v1.7c0,0.1,0,0.1,0,0.1c0,0,0,0.1,0,0.1c0,0.1,0.1,0.1,0.1,0.2
		c0.1,0,0.2,0.1,0.2,0.1c0.1,0,0.3,0,0.3-0.1c0.1-0.1,0.1-0.2,0.1-0.4v-1.7c0-0.1,0-0.1,0-0.2h0.8c0,0,0,0.1,0,0.2v2.5
		c0,0.1,0,0.1,0,0.2h-0.8v-0.3c-0.2,0.3-0.5,0.4-0.8,0.4c-0.3,0-0.5-0.1-0.6-0.2s-0.2-0.4-0.2-0.6v-1.9
		C-169.6,70.8-169.6,70.7-169.7,70.7"/>
	<path class="st1" d="M-164.7,70.7v0.5l-0.1-0.1c-0.2-0.1-0.3-0.2-0.5-0.2c-0.2,0-0.4,0.1-0.5,0.3c-0.1,0.2-0.2,0.5-0.2,0.9
		c0,0.3,0.1,0.6,0.2,0.8c0.1,0.2,0.3,0.3,0.5,0.3c0.1,0,0.3,0,0.4-0.1c0.1,0,0.1,0,0.1-0.1c0,0,0.1-0.1,0.1-0.1v0.5
		c-0.1,0.1-0.3,0.1-0.4,0.1c-0.1,0-0.3,0-0.4,0c-0.4,0-0.8-0.1-1-0.4c-0.2-0.3-0.4-0.6-0.4-1.1c0-0.5,0.1-0.8,0.4-1.1
		c0.3-0.3,0.6-0.4,1-0.4c0.1,0,0.3,0,0.4,0C-164.9,70.7-164.8,70.7-164.7,70.7"/>
	<path class="st1" d="M-164.1,71.3l-0.1-0.4l0.2-0.1c0.1,0,0.2-0.1,0.4-0.1s0.3,0,0.4,0c0.4,0,0.7,0.1,0.9,0.4
		c0.1,0.1,0.1,0.2,0.1,0.4v1.4c0,0.1,0,0.2,0,0.2c0,0,0.1,0.1,0.1,0.1c0,0,0.1,0,0.2-0.1v0.4c-0.2,0.1-0.4,0.2-0.5,0.2
		c-0.1,0-0.2,0-0.3-0.1c-0.1,0-0.2-0.1-0.2-0.2c0,0,0-0.1,0-0.1c0,0.1-0.1,0.1-0.1,0.1c-0.2,0.2-0.4,0.2-0.6,0.2
		c-0.2,0-0.4-0.1-0.6-0.2c-0.1-0.2-0.2-0.3-0.2-0.6c0-0.3,0.1-0.5,0.3-0.7c0.1-0.1,0.2-0.1,0.3-0.2c0.1-0.1,0.3-0.1,0.6-0.2
		c0.1,0,0.2-0.1,0.3-0.1c0.1-0.1,0.1-0.1,0.1-0.2c0-0.1,0-0.2-0.1-0.3c-0.1-0.1-0.2-0.1-0.3-0.1c-0.1,0-0.1,0-0.2,0
		c-0.1,0-0.2,0-0.2,0.1C-163.9,71.1-164,71.2-164.1,71.3 M-163,72.6v-0.7l-0.1,0.1l-0.3,0.2c-0.1,0.1-0.2,0.1-0.3,0.2
		c-0.1,0.1-0.1,0.2-0.1,0.3c0,0.1,0,0.2,0.1,0.3c0.1,0.1,0.2,0.1,0.3,0.1c0.1,0,0.2,0,0.3-0.1C-163,72.9-163,72.7-163,72.6"/>
	<path class="st1" d="M-161.7,70.7h0.7V71c0.1-0.1,0.1-0.2,0.2-0.3c0.1-0.1,0.3-0.1,0.4-0.1v0.6l-0.1,0c-0.4,0-0.5,0.2-0.5,0.6v1.6
		c0,0.1,0,0.1,0,0.2h-0.8c0,0,0-0.1,0-0.2v-2.5C-161.7,70.8-161.7,70.7-161.7,70.7"/>
	<path class="st1" d="M-156.1,72.1h-1.8v0.1c0,0.3,0.1,0.6,0.2,0.8c0.1,0.2,0.3,0.3,0.6,0.3c0.2,0,0.3,0,0.5-0.1
		c0.1,0,0.2-0.1,0.3-0.2l0.1,0.4l-0.2,0.1c-0.3,0.1-0.5,0.2-0.9,0.2c-0.5,0-0.8-0.1-1.1-0.4c-0.3-0.3-0.4-0.6-0.4-1.1
		c0-0.5,0.1-0.8,0.4-1.1c0.2-0.3,0.6-0.4,1-0.4c0.6,0,1,0.3,1.2,0.8c0,0.1,0.1,0.2,0.1,0.3C-156.2,71.8-156.1,71.9-156.1,72.1
		L-156.1,72.1z M-157.4,71c-0.2,0-0.3,0.1-0.4,0.2c-0.1,0.1-0.2,0.3-0.2,0.6h1c0-0.3,0-0.5-0.1-0.6C-157.2,71-157.3,71-157.4,71
		 M-157.7,70.5l0.4-0.7h0.6l-0.6,0.7H-157.7z"/>
	<path class="st1" d="M-154.1,71.3l-0.1-0.4l0.2-0.1c0.1,0,0.2-0.1,0.4-0.1s0.3,0,0.4,0c0.4,0,0.7,0.1,0.9,0.4
		c0.1,0.1,0.1,0.2,0.1,0.4v1.4c0,0.1,0,0.2,0,0.2c0,0,0.1,0.1,0.1,0.1c0,0,0.1,0,0.2-0.1v0.4c-0.2,0.1-0.4,0.2-0.5,0.2
		c-0.1,0-0.2,0-0.3-0.1c-0.1,0-0.2-0.1-0.2-0.2c0,0,0-0.1,0-0.1c0,0.1-0.1,0.1-0.1,0.1c-0.2,0.2-0.4,0.2-0.6,0.2
		c-0.2,0-0.4-0.1-0.6-0.2c-0.1-0.2-0.2-0.3-0.2-0.6c0-0.3,0.1-0.5,0.3-0.7c0.1-0.1,0.2-0.1,0.3-0.2c0.1-0.1,0.3-0.1,0.6-0.2
		c0.1,0,0.2-0.1,0.3-0.1c0.1-0.1,0.1-0.1,0.1-0.2c0-0.1,0-0.2-0.1-0.3c-0.1-0.1-0.2-0.1-0.3-0.1c-0.1,0-0.1,0-0.2,0
		c-0.1,0-0.2,0-0.2,0.1C-153.9,71.1-154,71.2-154.1,71.3 M-153,72.6v-0.7l-0.1,0.1l-0.3,0.2c-0.1,0.1-0.2,0.1-0.3,0.2
		c-0.1,0.1-0.1,0.2-0.1,0.3c0,0.1,0,0.2,0.1,0.3c0.1,0.1,0.2,0.1,0.3,0.1c0.1,0,0.2,0,0.3-0.1C-153,72.9-153,72.7-153,72.6"/>
	<path class="st1" d="M-150.3,73.5c0,0,0-0.1,0-0.2v-2.5c0-0.1,0-0.1,0-0.2h0.8V71c0-0.1,0.1-0.1,0.1-0.1c0.2-0.2,0.4-0.3,0.7-0.3
		c0.3,0,0.5,0.1,0.6,0.2c0.2,0.1,0.2,0.3,0.2,0.6v1.9c0,0.1,0,0.1,0,0.2h-0.8c0,0,0-0.1,0-0.2v-1.8c0-0.3-0.1-0.4-0.4-0.4
		c-0.1,0-0.3,0-0.3,0.1c-0.1,0.1-0.1,0.2-0.1,0.3v1.7c0,0.1,0,0.1,0,0.2H-150.3z"/>
	<path class="st1" d="M-147.4,72.1c0-0.5,0.1-0.8,0.4-1.1c0.2-0.3,0.6-0.4,1-0.4c0.4,0,0.7,0.1,1,0.4c0.2,0.3,0.4,0.6,0.4,1.1
		c0,0.4-0.1,0.8-0.4,1.1c-0.2,0.3-0.6,0.4-1,0.4c-0.4,0-0.7-0.1-1-0.4C-147.3,72.9-147.4,72.5-147.4,72.1 M-146.6,71.5
		c0,0,0,0.1,0,0.2c0,0.1,0,0.2,0,0.3c0,0.2,0,0.4,0.1,0.6s0.1,0.3,0.2,0.4c0.1,0.1,0.1,0.1,0.3,0.1c0.1,0,0.2,0,0.3-0.1
		c0.1-0.1,0.1-0.2,0.2-0.4c0-0.2,0.1-0.4,0.1-0.6c0-0.2,0-0.4-0.1-0.6c0-0.2-0.1-0.3-0.2-0.4c-0.1-0.1-0.2-0.1-0.3-0.1
		C-146.4,70.9-146.5,71.1-146.6,71.5"/>
	<path class="st1" d="M-144.5,73.3l0.1-0.5c0.1,0.1,0.2,0.2,0.3,0.2c0.2,0.1,0.3,0.1,0.5,0.1c0.1,0,0.2,0,0.3-0.1
		c0.1-0.1,0.1-0.2,0.1-0.3c0,0,0-0.1,0-0.1c0,0,0-0.1,0-0.1c0,0-0.1-0.1-0.2-0.1c-0.1,0-0.2-0.1-0.5-0.2c-0.2-0.1-0.3-0.1-0.4-0.2
		c-0.2-0.1-0.3-0.3-0.3-0.6c0-0.3,0.1-0.5,0.3-0.6c0.2-0.2,0.5-0.2,0.8-0.2c0.2,0,0.3,0,0.4,0c0.1,0,0.3,0.1,0.5,0.1l-0.1,0.4
		c-0.1-0.1-0.2-0.1-0.3-0.2c-0.1-0.1-0.3-0.1-0.4-0.1c-0.1,0-0.2,0-0.3,0.1c-0.1,0.1-0.1,0.1-0.1,0.3c0,0.1,0,0.1,0.1,0.2
		c0,0,0.1,0.1,0.2,0.1l0.4,0.1c0.3,0.1,0.5,0.2,0.6,0.3c0.1,0.1,0.2,0.3,0.2,0.5c0,0.3-0.1,0.5-0.3,0.7c-0.2,0.2-0.5,0.3-0.8,0.3
		c-0.1,0-0.2,0-0.3,0c-0.1,0-0.2,0-0.3-0.1c-0.1,0-0.1,0-0.2-0.1C-144.4,73.4-144.4,73.4-144.5,73.3"/>
	<path class="st1" d="M-142.2,73.3l0.1-0.5c0.1,0.1,0.2,0.2,0.3,0.2c0.2,0.1,0.3,0.1,0.5,0.1c0.1,0,0.2,0,0.3-0.1
		c0.1-0.1,0.1-0.2,0.1-0.3c0,0,0-0.1,0-0.1c0,0,0-0.1,0-0.1c0,0-0.1-0.1-0.2-0.1c-0.1,0-0.2-0.1-0.5-0.2c-0.2-0.1-0.3-0.1-0.4-0.2
		c-0.2-0.1-0.3-0.3-0.3-0.6c0-0.3,0.1-0.5,0.3-0.6c0.2-0.2,0.5-0.2,0.8-0.2c0.2,0,0.3,0,0.4,0c0.1,0,0.3,0.1,0.5,0.1l-0.1,0.4
		c-0.1-0.1-0.2-0.1-0.3-0.2c-0.1-0.1-0.3-0.1-0.4-0.1c-0.1,0-0.2,0-0.3,0.1c-0.1,0.1-0.1,0.1-0.1,0.3c0,0.1,0,0.1,0.1,0.2
		c0,0,0.1,0.1,0.2,0.1l0.4,0.1c0.3,0.1,0.5,0.2,0.6,0.3c0.1,0.1,0.2,0.3,0.2,0.5c0,0.3-0.1,0.5-0.3,0.7c-0.2,0.2-0.5,0.3-0.8,0.3
		c-0.1,0-0.2,0-0.3,0c-0.1,0-0.2,0-0.3-0.1c-0.1,0-0.1,0-0.2-0.1C-142,73.4-142.1,73.4-142.2,73.3"/>
	<path class="st1" d="M-139.5,71.3l-0.1-0.4l0.2-0.1c0.1,0,0.2-0.1,0.4-0.1s0.3,0,0.4,0c0.4,0,0.7,0.1,0.9,0.4
		c0.1,0.1,0.1,0.2,0.1,0.4v1.4c0,0.1,0,0.2,0,0.2c0,0,0.1,0.1,0.1,0.1c0,0,0.1,0,0.2-0.1v0.4c-0.2,0.1-0.4,0.2-0.5,0.2
		c-0.1,0-0.2,0-0.3-0.1s-0.2-0.1-0.2-0.2c0,0,0-0.1,0-0.1c0,0.1-0.1,0.1-0.1,0.1c-0.2,0.2-0.4,0.2-0.6,0.2c-0.2,0-0.4-0.1-0.6-0.2
		c-0.1-0.2-0.2-0.3-0.2-0.6c0-0.3,0.1-0.5,0.3-0.7c0.1-0.1,0.2-0.1,0.3-0.2c0.1-0.1,0.3-0.1,0.6-0.2c0.1,0,0.2-0.1,0.3-0.1
		c0.1-0.1,0.1-0.1,0.1-0.2c0-0.1,0-0.2-0.1-0.3c-0.1-0.1-0.2-0.1-0.3-0.1c-0.1,0-0.1,0-0.2,0c-0.1,0-0.2,0-0.2,0.1
		C-139.3,71.1-139.4,71.2-139.5,71.3 M-138.3,72.6v-0.7l-0.1,0.1l-0.3,0.2c-0.1,0.1-0.2,0.1-0.3,0.2c-0.1,0.1-0.1,0.2-0.1,0.3
		c0,0.1,0,0.2,0.1,0.3c0.1,0.1,0.2,0.1,0.3,0.1c0.1,0,0.2,0,0.3-0.1C-138.4,72.9-138.3,72.7-138.3,72.6"/>
	<path class="st1" d="M-134,70.9v-1c0-0.1,0-0.1,0-0.2h0.8c0,0,0,0,0,0.1c0,0,0,0.1,0,0.1v3.4c0,0,0,0.1,0,0.2h-0.8v-0.3l-0.1,0.1
		c-0.1,0.1-0.2,0.1-0.3,0.2c-0.1,0-0.2,0.1-0.4,0.1c-0.3,0-0.6-0.1-0.8-0.4c-0.2-0.3-0.3-0.6-0.3-1.1c0-0.5,0.1-0.8,0.3-1.1
		c0.2-0.2,0.5-0.4,0.8-0.4c0.1,0,0.3,0,0.4,0.1C-134.2,70.7-134.1,70.8-134,70.9 M-134.4,71c-0.2,0-0.3,0.1-0.4,0.3
		c-0.1,0.2-0.1,0.4-0.1,0.8v0.1c0,0.6,0.2,1,0.5,1c0.1,0,0.2,0,0.3-0.1c0.1-0.1,0.1-0.2,0.2-0.4c0,0,0-0.1,0-0.2c0-0.1,0-0.2,0-0.2
		v-0.1l0-0.6c0-0.2,0-0.3-0.1-0.4C-134.2,71.1-134.3,71-134.4,71"/>
	<path class="st1" d="M-132.8,70.2c0-0.2,0.2-0.3,0.5-0.3c0.3,0,0.4,0.1,0.4,0.3c0,0.2-0.2,0.3-0.5,0.3
		C-132.6,70.5-132.8,70.4-132.8,70.2 M-132.7,73.5c0,0,0-0.1,0-0.2v-2.5c0-0.1,0-0.1,0-0.2h0.8c0,0,0,0.1,0,0.2v2.5
		c0,0.1,0,0.1,0,0.2H-132.7z"/>
	<path class="st1" d="M-131.8,70.7h0.9v0c0,0,0,0.1,0,0.1l0.6,1.8l0.7-1.8c0-0.1,0-0.1,0-0.1v0h0.4c0,0-0.1,0.1-0.1,0.2l-0.9,2.5
		c0,0.1,0,0.1,0,0.1v0h-0.6v0c0,0,0-0.1,0-0.1l-0.9-2.5C-131.8,70.8-131.8,70.8-131.8,70.7C-131.8,70.7-131.8,70.7-131.8,70.7"/>
	<path class="st1" d="M-126.6,72.1h-1.8v0.1c0,0.3,0.1,0.6,0.2,0.8c0.1,0.2,0.3,0.3,0.6,0.3c0.2,0,0.3,0,0.5-0.1
		c0.1,0,0.2-0.1,0.3-0.2l0.1,0.4l-0.2,0.1c-0.3,0.1-0.5,0.2-0.9,0.2c-0.5,0-0.8-0.1-1.1-0.4c-0.3-0.3-0.4-0.6-0.4-1.1
		c0-0.5,0.1-0.8,0.4-1.1c0.2-0.3,0.6-0.4,1-0.4c0.6,0,1,0.3,1.1,0.8c0,0.1,0.1,0.2,0.1,0.3C-126.6,71.8-126.6,71.9-126.6,72.1
		L-126.6,72.1z M-127.9,71c-0.2,0-0.3,0.1-0.4,0.2s-0.2,0.3-0.2,0.6h1c0-0.3,0-0.5-0.1-0.6C-127.6,71-127.7,71-127.9,71"/>
	<path class="st1" d="M-126.2,70.7h0.7V71c0.1-0.1,0.1-0.2,0.2-0.3c0.1-0.1,0.3-0.1,0.4-0.1v0.6l-0.1,0c-0.4,0-0.5,0.2-0.5,0.6v1.6
		c0,0.1,0,0.1,0,0.2h-0.8c0,0,0-0.1,0-0.2v-2.5C-126.2,70.8-126.2,70.7-126.2,70.7"/>
	<path class="st1" d="M-124.8,73.3l0.1-0.5c0.1,0.1,0.2,0.2,0.3,0.2c0.2,0.1,0.3,0.1,0.5,0.1c0.1,0,0.2,0,0.3-0.1s0.1-0.2,0.1-0.3
		c0,0,0-0.1,0-0.1c0,0,0-0.1,0-0.1c0,0-0.1-0.1-0.2-0.1c-0.1,0-0.2-0.1-0.5-0.2c-0.2-0.1-0.3-0.1-0.4-0.2c-0.2-0.1-0.3-0.3-0.3-0.6
		c0-0.3,0.1-0.5,0.3-0.6c0.2-0.2,0.5-0.2,0.8-0.2c0.2,0,0.3,0,0.4,0c0.1,0,0.3,0.1,0.5,0.1l-0.1,0.4c-0.1-0.1-0.2-0.1-0.3-0.2
		c-0.1-0.1-0.3-0.1-0.4-0.1c-0.1,0-0.2,0-0.3,0.1c-0.1,0.1-0.1,0.1-0.1,0.3c0,0.1,0,0.1,0.1,0.2c0,0,0.1,0.1,0.2,0.1l0.4,0.1
		c0.3,0.1,0.5,0.2,0.6,0.3c0.1,0.1,0.2,0.3,0.2,0.5c0,0.3-0.1,0.5-0.3,0.7c-0.2,0.2-0.5,0.3-0.8,0.3c-0.1,0-0.2,0-0.3,0
		c-0.1,0-0.2,0-0.3-0.1c-0.1,0-0.1,0-0.2-0.1C-124.6,73.4-124.7,73.4-124.8,73.3"/>
	<path class="st1" d="M-122.1,71.3l-0.1-0.4l0.2-0.1c0.1,0,0.2-0.1,0.4-0.1s0.3,0,0.4,0c0.4,0,0.7,0.1,0.9,0.4
		c0.1,0.1,0.1,0.2,0.1,0.4v1.4c0,0.1,0,0.2,0,0.2c0,0,0.1,0.1,0.1,0.1c0,0,0.1,0,0.2-0.1v0.4c-0.2,0.1-0.4,0.2-0.5,0.2
		c-0.1,0-0.2,0-0.3-0.1c-0.1,0-0.2-0.1-0.2-0.2c0,0,0-0.1,0-0.1c0,0.1-0.1,0.1-0.1,0.1c-0.2,0.2-0.4,0.2-0.6,0.2
		c-0.2,0-0.4-0.1-0.6-0.2c-0.1-0.2-0.2-0.3-0.2-0.6c0-0.3,0.1-0.5,0.3-0.7c0.1-0.1,0.2-0.1,0.3-0.2c0.1-0.1,0.3-0.1,0.6-0.2
		c0.1,0,0.2-0.1,0.3-0.1c0.1-0.1,0.1-0.1,0.1-0.2c0-0.1,0-0.2-0.1-0.3c-0.1-0.1-0.2-0.1-0.3-0.1c-0.1,0-0.1,0-0.2,0
		c-0.1,0-0.2,0-0.2,0.1C-121.9,71.1-122,71.2-122.1,71.3 M-122,70.1c0.2-0.1,0.3-0.1,0.5-0.1c0.1,0,0.3,0,0.4,0l0.3,0h0.1
		c0.1,0,0.2,0,0.3-0.1l0,0.3c-0.1,0-0.2,0.1-0.3,0.1h-0.2l-0.3-0.1c-0.1,0-0.2,0-0.4,0c-0.1,0-0.1,0-0.2,0s-0.1,0-0.2,0.1L-122,70.1
		z M-120.9,72.6v-0.7L-121,72l-0.3,0.2c-0.1,0.1-0.2,0.1-0.3,0.2c-0.1,0.1-0.1,0.2-0.1,0.3c0,0.1,0,0.2,0.1,0.3
		c0.1,0.1,0.2,0.1,0.3,0.1c0.1,0,0.2,0,0.3-0.1C-121,72.9-120.9,72.7-120.9,72.6"/>
	<path class="st1" d="M-119.7,72.1c0-0.5,0.1-0.8,0.4-1.1c0.2-0.3,0.6-0.4,1-0.4c0.4,0,0.7,0.1,1,0.4c0.2,0.3,0.4,0.6,0.4,1.1
		c0,0.4-0.1,0.8-0.4,1.1c-0.2,0.3-0.6,0.4-1,0.4c-0.4,0-0.7-0.1-1-0.4C-119.6,72.9-119.7,72.5-119.7,72.1 M-118.9,71.5
		c0,0,0,0.1,0,0.2c0,0.1,0,0.2,0,0.3c0,0.2,0,0.4,0.1,0.6c0,0.2,0.1,0.3,0.2,0.4c0.1,0.1,0.1,0.1,0.3,0.1c0.1,0,0.2,0,0.3-0.1
		c0.1-0.1,0.1-0.2,0.2-0.4c0-0.2,0.1-0.4,0.1-0.6c0-0.2,0-0.4-0.1-0.6c0-0.2-0.1-0.3-0.2-0.4c-0.1-0.1-0.2-0.1-0.3-0.1
		C-118.6,70.9-118.8,71.1-118.9,71.5"/>
	<path class="st1" d="M-116.7,70h0.9c0,0,0,0.1,0,0.2l-0.1,2.3h-0.6l-0.1-2.3C-116.7,70.1-116.7,70-116.7,70 M-116.7,73.1
		c0-0.1,0-0.2,0.1-0.3c0.1-0.1,0.2-0.1,0.3-0.1c0.1,0,0.2,0,0.3,0.1c0.1,0.1,0.1,0.2,0.1,0.3c0,0.1,0,0.2-0.1,0.3
		c-0.1,0.1-0.2,0.1-0.3,0.1c-0.1,0-0.2,0-0.3-0.1C-116.6,73.4-116.7,73.3-116.7,73.1"/>
</g>
</svg>
